HIERARCHY
ROOT Hips
{
	OFFSET 0.000000 0.000000 0.000000
	CHANNELS 6 Xposition Yposition Zposition Zrotation Yrotation Xrotation 
	JOINT LeftUpLeg_virtual
	{
		OFFSET 0.000000 0.000000 0.000000
		CHANNELS 3 Zrotation Yrotation Xrotation
		JOINT LeftUpLeg
		{
			OFFSET 8.479694 -4.795517 -0.379053
			CHANNELS 3 Zrotation Yrotation Xrotation
			JOINT LeftLeg
			{
				OFFSET 0.485052 -32.551468 0.112863
				CHANNELS 3 Zrotation Yrotation Xrotation
				JOINT LeftFoot
				{
					OFFSET 0.438033 -32.635670 -3.012641
					CHANNELS 3 Zrotation Yrotation Xrotation
					JOINT LeftToeBase
					{
						OFFSET 0.970169 -13.225353 11.864223
						CHANNELS 3 Zrotation Yrotation Xrotation
						End Site
						{
							OFFSET 0.000000 0.000000 0.000000
						}
					}
				}
			}
		}
	}
	JOINT RightUpLeg_virtual
	{
		OFFSET 0.000000 0.000000 0.000000
		CHANNELS 3 Zrotation Yrotation Xrotation
		JOINT RightUpLeg
		{
			OFFSET -8.479694 -4.795517 -0.379053
			CHANNELS 3 Zrotation Yrotation Xrotation
			JOINT RightLeg
			{
				OFFSET -0.484100 -32.551483 0.112903
				CHANNELS 3 Zrotation Yrotation Xrotation
				JOINT RightFoot
				{
					OFFSET -0.438985 -32.635651 -3.012681
					CHANNELS 3 Zrotation Yrotation Xrotation
					JOINT RightToeBase
					{
						OFFSET -0.970169 -13.225354 11.864223
						CHANNELS 3 Zrotation Yrotation Xrotation
						End Site
						{
							OFFSET 0.000000 0.000000 0.000000
						}
					}
				}
			}
		}
	}
	JOINT Spine_virtual
	{
		OFFSET 0.000000 0.000000 0.000000
		CHANNELS 3 Zrotation Yrotation Xrotation
		JOINT Spine
		{
			OFFSET 0.000000 7.722015 1.166203
			CHANNELS 3 Zrotation Yrotation Xrotation
			JOINT Spine1
			{
				OFFSET 0.000000 12.024086 0.248766
				CHANNELS 3 Zrotation Yrotation Xrotation
				JOINT Spine2
				{
					OFFSET -0.000000 11.503036 -0.491240
					CHANNELS 3 Zrotation Yrotation Xrotation
					JOINT Neck_virtual
					{
						OFFSET 0.000000 0.000000 0.000000
						CHANNELS 3 Zrotation Yrotation Xrotation
						JOINT Neck
						{
							OFFSET 0.000000 18.430687 -3.123054
							CHANNELS 3 Zrotation Yrotation Xrotation
							JOINT Head
							{
								OFFSET -0.000000 9.051071 1.034021
								CHANNELS 3 Zrotation Yrotation Xrotation
								End Site
								{
									OFFSET 0.000000 0.000000 0.000000
								}
							}
						}
					}
					JOINT LeftShoulder_virtual
					{
						OFFSET 0.000000 0.000000 0.000000
						CHANNELS 3 Zrotation Yrotation Xrotation
						JOINT LeftShoulder
						{
							OFFSET 6.197824 13.665230 -4.064723
							CHANNELS 3 Zrotation Yrotation Xrotation
							JOINT LeftArm
							{
								OFFSET 7.778132 -0.187073 -1.709282
								CHANNELS 3 Zrotation Yrotation Xrotation
								JOINT LeftForeArm
								{
									OFFSET 21.954697 0.000000 -2.041093
									CHANNELS 3 Zrotation Yrotation Xrotation
									JOINT LeftHand
									{
										OFFSET 22.992908 0.000000 -0.870901
										CHANNELS 3 Zrotation Yrotation Xrotation
										End Site
										{
											OFFSET 0.000000 0.000000 0.000000
										}
									}
								}
							}
						}
					}
					JOINT RightShoulder_virtual
					{
						OFFSET 0.000000 0.000000 0.000000
						CHANNELS 3 Zrotation Yrotation Xrotation
						JOINT RightShoulder
						{
							OFFSET -6.197824 13.665230 -4.064723
							CHANNELS 3 Zrotation Yrotation Xrotation
							JOINT RightArm
							{
								OFFSET -7.778132 -0.187073 -1.709282
								CHANNELS 3 Zrotation Yrotation Xrotation
								JOINT RightForeArm
								{
									OFFSET -21.954697 0.000000 -2.041093
									CHANNELS 3 Zrotation Yrotation Xrotation
									JOINT RightHand
									{
										OFFSET -22.992908 0.000000 -0.870901
										CHANNELS 3 Zrotation Yrotation Xrotation
										End Site
										{
											OFFSET 0.000000 0.000000 0.000000
										}
									}
								}
							}
						}
					}
				}
			}
		}
	}
}
MOTION
Frames: 4
Frame Time: 0.033333
1.403387 80.851921 23.392086 -179.973859 2.641192 -179.854481 -5.136346 -1.096902 11.353304 -1.387721 2.438925 -22.399993 8.315467 4.112717 30.506917 1.091106 -8.916638 -14.229576 0.000000 0.000000 0.000000 -2.035258 -1.852304 10.884717 -1.323266 -2.893800 -19.621931 -2.127193 2.284040 29.588895 7.107953 2.928261 -13.732785 0.000000 0.000000 0.000000 1.900752 1.525741 0.052610 -5.309784 0.927049 -1.190678 -0.033193 -2.585333 3.458553 0.005301 0.028876 0.002384 -0.226786 -1.737331 4.498198 -7.194272 5.559558 -11.976256 0.000000 0.000000 0.000000 1.362737 -0.931648 2.003971 0.789682 5.683846 -6.496013 0.045429 -15.530414 -52.802830 3.325401 -34.088586 -3.335187 0.000000 0.000000 0.000000 -2.525932 0.289780 1.332625 21.709760 -8.336802 -9.822699 -2.163356 5.103348 -67.029195 0.371402 20.791828 5.062146 0.000000 0.000000 0.000000 
1.407564 80.836464 23.491432 -179.979965 2.800965 -179.848320 -5.235142 -1.059479 11.426014 -1.222898 2.367719 -22.273788 8.373202 3.917948 30.510254 1.075022 -9.007432 -14.589474 0.000000 0.000000 0.000000 -1.951159 -2.215614 10.499022 -1.183238 -3.311177 -19.781850 -2.548049 1.834005 30.386388 6.535214 2.227199 -14.052117 0.000000 0.000000 0.000000 1.913913 1.564666 0.056024 -5.319312 0.924482 -1.149539 -0.033756 -2.572409 3.376811 -0.002401 0.032881 0.017956 -0.217943 -1.665572 4.527090 -7.157654 5.429091 -11.939639 0.000000 0.000000 0.000000 1.373858 -0.920259 2.020696 0.811668 5.641267 -6.600029 0.057374 -15.648768 -52.715646 3.342724 -33.944285 -3.442459 0.000000 0.000000 0.000000 -2.459289 0.232016 1.358873 22.015141 -8.317306 -9.862847 -2.186197 5.053849 -66.852526 0.334298 20.777050 5.120382 0.000000 0.000000 0.000000 
1.408200 80.831772 23.620060 -179.892962 3.040615 -179.847309 -5.231784 -0.973752 11.326076 -1.162203 2.471926 -22.251064 8.414411 3.908692 30.473299 1.061691 -9.073233 -14.653223 0.000000 0.000000 0.000000 -2.021169 -2.226440 10.401012 -1.042664 -3.187843 -19.763175 -2.604030 1.922179 30.248347 6.599872 2.259775 -13.998043 0.000000 0.000000 0.000000 1.949271 1.577176 0.040205 -5.327907 0.852162 -1.163136 0.005945 -2.582690 3.406261 0.025567 0.014013 -0.010860 -0.263259 -1.750471 4.596510 -7.059564 5.254406 -11.849447 0.000000 0.000000 0.000000 1.342444 -0.895904 1.993360 0.807163 5.568945 -6.460428 0.089412 -15.773197 -52.523892 3.376956 -33.906350 -3.441733 0.000000 0.000000 0.000000 -2.492880 0.316454 1.399308 22.244464 -8.145521 -9.777738 -1.967589 4.793383 -66.656499 0.352356 20.966176 5.193939 0.000000 0.000000 0.000000 
1.413649 80.845123 23.767069 -179.859412 3.381631 -179.950035 -5.259526 -0.824179 11.288232 -1.089099 2.415790 -22.152986 8.429396 3.932177 30.371010 1.154486 -8.997549 -14.619463 0.000000 0.000000 0.000000 -2.181578 -1.978498 10.425142 -0.893324 -3.249912 -19.691528 -2.561257 1.821797 29.990234 6.711340 2.322589 -13.866611 0.000000 0.000000 0.000000 1.943842 1.640110 0.095028 -5.366282 0.817991 -1.127825 0.000022 -2.531932 3.490665 -0.046615 0.035454 0.007035 -0.204782 -1.497343 4.584683 -6.895479 5.049639 -11.632302 0.000000 0.000000 0.000000 1.411798 -0.818759 2.030534 0.662570 5.412338 -6.423004 0.157913 -16.120058 -52.372972 3.394182 -33.958393 -3.356364 0.000000 0.000000 0.000000 -2.398892 0.330269 1.391420 22.374359 -8.050698 -9.604210 -1.760287 4.518152 -66.545631 0.297161 21.336953 5.208784 0.000000 0.000000 0.000000 
